# xmcd
#
# Track frame offsets:
#	150
#	14919
#	34467
#	49506
#	61353
#	78171
#	93657
#	109743
#	118805
#	130587
#	145015
#	166594
#	193207
#	207551
#	231773
#	248895
#	260685
#	272493
#	295372
#	309919
#	325122
#	337079
#
# Disc length: 4690 seconds
#
# Revision: 2
# Processed by: cddbd v1.5PL3 Copyright (c) Steve Scherf et al.
# Submitted via: audiograbber 1.82.01
#
DISCID=49125016
DTITLE=Golden Instrumental Collection - Volume 5
DYEAR=1900
DGENRE=
TTITLE0=Goya - Romance De Amour
TTITLE1=J Last - The Lonely Shepherd
TTITLE2=F Pappetti - Emanuelle
TTITLE3=Paul Mauriat - Toccata
TTITLE4=Jethro Tull - Bouree
TTITLE5=G Moroder - Love Theme From Flash Dance
TTITLE6=Ocarina - Moonlight Reggae
TTITLE7=The Shadows - Man of Mistery
TTITLE8=Paul Mauriat - Love Is Blue
TTITLE9=Saint Preux - Amours Meteores
TTITLE10=Santana - Moonflower
TTITLE11=Vangalis - La Patite File De Ia Mer
TTITLE12=F Pourcel - Besame Mucho
TTITLE13=D Brubeck - Take Five
TTITLE14=D Marouani - Space Opera Part III
TTITLE15=F Duval - Ballade Pour Adeline
TTITLE16=H Manciny - The Pink Panter
TTITLE17=Ennio Maricone - Chi Mai
TTITLE18=R Clauderman - La Camparasita
TTITLE19=C Atkins - Ave Maria
TTITLE20=F Goya - La Raggazia Di Blue
TTITLE21=P Weekers - Ei Condor Posa
EXTD=
EXTT0=
EXTT1=
EXTT2=
EXTT3=
EXTT4=
EXTT5=
EXTT6=
EXTT7=
EXTT8=
EXTT9=
EXTT10=
EXTT11=
EXTT12=
EXTT13=
EXTT14=
EXTT15=
EXTT16=
EXTT17=
EXTT18=
EXTT19=
EXTT20=
EXTT21=
PLAYORDER=
